<mxfile host="app.diagrams.net" modified="2023-11-17T09:27:00.201Z" agent="Mozilla/5.0 (X11; Linux x86_64) AppleWebKit/537.36 (KHTML, like Gecko) Chrome/119.0.0.0 Safari/537.36" version="22.1.2" etag="c2sIiiNFmxUJb7QNw2qL" type="github">
  <diagram name="Page-1" id="StaVLK4DeomRRbhotIvL">
    <mxGraphModel>
      <root>
        <mxCell id="0" />
        <mxCell id="1" parent="0" />
      </root>
    </mxGraphModel>
  </diagram>
</mxfile>
